<?xml version="1.0" encoding="iso-8859-1"?>
<!-- Generator: Adobe Illustrator 19.0.0, SVG Export Plug-In . SVG Version: 6.00 Build 0)  -->
<svg version="1.1" id="Layer_1" xmlns="http://www.w3.org/2000/svg" xmlns:xlink="http://www.w3.org/1999/xlink" x="0px" y="0px"
	 viewBox="0 0 511.999 511.999" style="enable-background:new 0 0 511.999 511.999;" xml:space="preserve">
<g>
	<g>
		<path d="M418.036,153.264L447.7,123.6l-59.327-59.327l-29.665,29.662L264.773,0l-148.32,148.319l69.216,69.216l-163.15,163.15
			c-29.988,29.987-29.987,78.78,0,108.768c27.443,27.443,76.195,32.572,108.768,0l163.15-163.151l69.216,69.216l148.319-148.319
			L418.036,153.264z M101.621,459.789c-13.631,13.628-35.808,13.63-49.441,0c-13.63-13.631-13.63-35.809,0-49.441l163.151-163.15
			l49.439,49.439L101.621,459.789z M363.651,336.191l-187.87-187.87l88.992-88.992l187.87,187.87L363.651,336.191z"/>
	</g>
</g>
<g>
</g>
<g>
</g>
<g>
</g>
<g>
</g>
<g>
</g>
<g>
</g>
<g>
</g>
<g>
</g>
<g>
</g>
<g>
</g>
<g>
</g>
<g>
</g>
<g>
</g>
<g>
</g>
<g>
</g>
</svg>
