<svg xmlns="http://www.w3.org/2000/svg" data-name="Layer 1" viewBox="0 0 32 32"><path d="M15,28.092V26.5A1.5,1.5,0,0,0,13.5,25H2.5A1.5,1.5,0,0,0,1,26.5v1.592A1.5,1.5,0,0,0,0,29.5v2a.5.5,0,0,0,.5.5h15a.5.5,0,0,0,.5-.5v-2A1.5,1.5,0,0,0,15,28.092ZM2,26.5a.5.5,0,0,1,.5-.5h11a.5.5,0,0,1,.5.5V28H2ZM15,31H1V29.5a.5.5,0,0,1,.5-.5h13a.5.5,0,0,1,.5.5Zm16.11-2.454L18.5,15.939l2.318-2.318a2.013,2.013,0,0,0,.511.075,2,2,0,0,0,1.414-3.413L17.09,4.625A1.993,1.993,0,0,0,13.751,6.55L6.287,14.015a1.994,1.994,0,0,0-1.925,3.339l5.657,5.657a2,2,0,0,0,2.828,0h0a1.994,1.994,0,0,0,.511-1.926l2.318-2.318L28.282,31.374a2,2,0,1,0,2.828-2.828ZM14.969,5.333a1,1,0,0,1,1.414,0L22.04,10.99a1,1,0,0,1,0,1.414,1.025,1.025,0,0,1-1.415,0L17.8,9.575,14.969,6.747A1,1,0,0,1,14.969,5.333ZM12.141,22.3a1.006,1.006,0,0,1-1.415,0L5.069,16.646a1,1,0,0,1,1.415-1.414l5.657,5.656a1,1,0,0,1,0,1.415Zm.707-2.122L7.19,14.525l7.071-7.071,5.656,5.657ZM30.4,30.667a1.024,1.024,0,0,1-1.414,0L16.383,18.061,17.8,16.646,30.4,29.253A1,1,0,0,1,30.4,30.667Z"/></svg>